<?xml version="1.0" encoding="utf-8"?>
<!-- Generator: Adobe Illustrator 16.0.0, SVG Export Plug-In . SVG Version: 6.00 Build 0)  -->
<!DOCTYPE svg PUBLIC "-//W3C//DTD SVG 1.1//EN" "http://www.w3.org/Graphics/SVG/1.1/DTD/svg11.dtd">
<svg version="1.1" id="图层_1" xmlns="http://www.w3.org/2000/svg" xmlns:xlink="http://www.w3.org/1999/xlink" x="0px" y="0px"
	 width="26px" height="208px" viewBox="0 0 26 208" enable-background="new 0 0 26 208" xml:space="preserve">
<circle fill="#FFFFFF" fill-opacity="0.78" cx="13" cy="117" r="11"/>
<circle fill="#FFFFFF" fill-opacity="0.78" cx="13" cy="143" r="11"/>
<circle fill="none" stroke="#F15353" stroke-width="2" cx="13" cy="169" r="7"/>
<circle fill="none" stroke="#F15353" stroke-width="2" cx="13" cy="195" r="7"/>
<circle fill="#F15353" cx="13" cy="195" r="2.5"/>
<path fill="#F15353" d="M5,83v6h2v-4h4v-2H5z M15,83v2h4v4h2v-6H15z M10,88v6h6v-6H10z M5,93v6h6v-2H7v-4H5z M19,93v4h-4v2h6v-6H19z
	"/>
<path fill="#F15353" d="M13,110c-3.866,0-7,3.134-7,7s3.134,7,7,7l0,0c3.866,0,7-3.134,7-7l0,0C20,113.134,16.866,110,13,110z
	 M12,113h2v2h-2V113z M12,116h2v5h-2V116z"/>
<path fill="#F15353" d="M5,57v6h2v-4h4v-2H5z M15,57v2h4v4h2v-6H15z M5,67v6h6v-2H7v-4H5z M19,67v4h-4v2h6v-6H19z"/>
<path fill="#F15353" d="M17,38v2H9v-2H17z"/>
<path fill="#F15353" d="M12,9v3H9v2h3v3h2v-3h3v-2h-3V9H12z"/>
<path fill="#F15353" d="M13,136l-6.125,6.125h4.375V150h3.5v-7.875h4.375L13,136z"/>
<path fill="#F15353" d="M10.428,173.33v-5.77l5-2.891v5.77L10.428,173.33z M11.428,171.6l3-1.729l-3.001-1.74L11.428,171.6z"/>
</svg>
